<?xml version="1.0" encoding="UTF-8" standalone="no"?>
<!-- Created with Inkscape (http://www.inkscape.org/) -->

<svg
   xmlns:dc="http://purl.org/dc/elements/1.1/"
   xmlns:cc="http://creativecommons.org/ns#"
   xmlns:rdf="http://www.w3.org/1999/02/22-rdf-syntax-ns#"
   xmlns:svg="http://www.w3.org/2000/svg"
   xmlns="http://www.w3.org/2000/svg"
   version="1.1"
   width="320"
   height="320"
   id="svg2">
  <defs
     id="defs4" />
  <metadata
     id="metadata7">
    <rdf:RDF>
      <cc:Work
         rdf:about="">
        <dc:format>image/svg+xml</dc:format>
        <dc:type
           rdf:resource="http://purl.org/dc/dcmitype/StillImage" />
        <dc:title></dc:title>
      </cc:Work>
    </rdf:RDF>
  </metadata>
  <g
     transform="translate(0,-732.36217)"
     id="layer1">
    <path
       d="M 160.16882,1039.7963 264.34836,896.349 c -77.91267,0 -125.58211,-0.0798 -208.708831,0.96623 z"
       id="path3869"
       style="fill:#000000;fill-opacity:1;stroke:#000000;stroke-width:0.87143862px;stroke-linecap:butt;stroke-linejoin:miter;stroke-opacity:1" />
  </g>
  <g
     id="layer3">
    <path
       d="m 670,466.64789 a 300,300 0 1 1 -600,0 300,300 0 1 1 600,0 z"
       transform="matrix(-0.35953422,0,0,-0.34880261,292.63177,306.87886)"
       id="path2985"
       style="fill:none;stroke:#000000;stroke-width:67.28295135;stroke-linecap:butt;stroke-linejoin:miter;stroke-miterlimit:4;stroke-opacity:1;stroke-dasharray:none" />
    <path
       d="m 160.61426,254.84515 a 53.033009,53.033009 0 1 1 -106.066016,0 53.033009,53.033009 0 1 1 106.066016,0 z"
       transform="matrix(-0.77473491,0,0,-0.77473491,317.29738,259.68781)"
       id="path3871"
       style="fill:#000000;fill-opacity:1;stroke:#ffffff;stroke-width:30.97833824;stroke-miterlimit:4;stroke-opacity:1;stroke-dasharray:none" />
    <path
       d="m 160.61426,254.84515 a 53.033009,53.033009 0 1 1 -106.066016,0 53.033009,53.033009 0 1 1 106.066016,0 z"
       transform="matrix(-0.77473491,0,0,-0.77473491,168.59838,260.89391)"
       id="path3871-4"
       style="fill:#000000;fill-opacity:1;stroke:#ffffff;stroke-width:30.97833824;stroke-miterlimit:4;stroke-opacity:1;stroke-dasharray:none" />
  </g>
</svg>
